<?xml version="1.0" standalone="no"?>
<!DOCTYPE svg PUBLIC "-//W3C//DTD SVG 20010904//EN"
 "http://www.w3.org/TR/2001/REC-SVG-20010904/DTD/svg10.dtd">
<svg version="1.0" xmlns="http://www.w3.org/2000/svg"
 width="100.000000pt" height="100.000000pt" viewBox="0 0 100.000000 100.000000"
 preserveAspectRatio="xMidYMid meet">

<g transform="translate(0.000000,100.000000) scale(0.100000,-0.100000)"
fill="#000000" stroke="none">
<path d="M254 829 c-41 -12 -82 -51 -89 -86 -11 -49 -14 -53 -34 -53 -30 0
-51 -27 -51 -66 0 -29 3 -34 23 -34 l24 0 -18 -112 c-26 -156 -27 -148 24
-148 68 0 77 12 98 136 10 60 19 112 19 117 0 4 14 7 30 7 42 0 72 33 68 73
-3 28 -7 32 -35 35 -18 2 -33 7 -33 11 0 17 38 41 64 41 19 0 29 7 36 26 13
32 13 30 -6 48 -17 17 -70 20 -120 5z"/>
<path d="M431 788 c-57 -280 -70 -392 -51 -428 13 -25 80 -43 126 -34 38 7 58
37 52 78 -2 16 -9 20 -27 18 -13 -2 -27 1 -31 7 -3 6 8 96 26 199 23 131 29
191 22 200 -6 6 -32 12 -59 12 l-48 0 -10 -52z"/>
<path d="M740 694 c-110 -47 -172 -199 -123 -301 40 -86 199 -97 281 -20 63
58 91 189 56 262 -31 66 -133 94 -214 59z m99 -90 c21 -15 23 -23 19 -71 -8
-89 -72 -149 -118 -108 -50 45 1 186 70 194 3 1 16 -6 29 -15z"/>
<path d="M93 250 c-24 -10 -37 -30 -47 -72 l-6 -28 413 0 c315 0 417 3 430 13
19 14 49 82 40 91 -10 9 -805 6 -830 -4z"/>
</g>
</svg>
